<svg width="49" height="48" viewBox="0 0 49 48" fill="none" xmlns="http://www.w3.org/2000/svg">
<rect x="0.611328" width="48" height="48" rx="24" fill="#F3E3A9"/>
<path fill-rule="evenodd" clip-rule="evenodd" d="M19.8117 19.2004V18.0004C19.8117 17.0456 20.191 16.1299 20.8661 15.4548C21.5413 14.7797 22.4569 14.4004 23.4117 14.4004H25.8117C26.7665 14.4004 27.6822 14.7797 28.3573 15.4548C29.0324 16.1299 29.4117 17.0456 29.4117 18.0004V19.2004H31.8117C32.4482 19.2004 33.0587 19.4532 33.5088 19.9033C33.9589 20.3534 34.2117 20.9639 34.2117 21.6004V25.8844C31.1393 27.0229 27.8883 27.604 24.6117 27.6004C21.3351 27.604 18.0842 27.0229 15.0117 25.8844V21.6004C15.0117 20.9639 15.2646 20.3534 15.7147 19.9033C16.1647 19.4532 16.7752 19.2004 17.4117 19.2004H19.8117ZM22.2117 18.0004C22.2117 17.6821 22.3381 17.3769 22.5632 17.1519C22.7882 16.9268 23.0935 16.8004 23.4117 16.8004H25.8117C26.13 16.8004 26.4352 16.9268 26.6602 17.1519C26.8853 17.3769 27.0117 17.6821 27.0117 18.0004V19.2004H22.2117V18.0004ZM23.4117 24.0004C23.4117 23.6821 23.5381 23.3769 23.7632 23.1519C23.9882 22.9268 24.2935 22.8004 24.6117 22.8004H24.6237C24.942 22.8004 25.2472 22.9268 25.4722 23.1519C25.6973 23.3769 25.8237 23.6821 25.8237 24.0004C25.8237 24.3187 25.6973 24.6239 25.4722 24.8489C25.2472 25.074 24.942 25.2004 24.6237 25.2004H24.6117C24.2935 25.2004 23.9882 25.074 23.7632 24.8489C23.5381 24.6239 23.4117 24.3187 23.4117 24.0004Z" fill="#CE9200"/>
<path d="M15.0117 28.4307V31.2003C15.0117 31.8368 15.2646 32.4472 15.7147 32.8973C16.1647 33.3474 16.7752 33.6003 17.4117 33.6003H31.8117C32.4482 33.6003 33.0587 33.3474 33.5088 32.8973C33.9589 32.4472 34.2117 31.8368 34.2117 31.2003V28.4307C31.1186 29.4732 27.8758 30.0034 24.6117 30.0003C21.2565 30.0003 18.0273 29.4483 15.0117 28.4307Z" fill="#CE9200"/>
</svg>
