<svg width="25" height="24" viewBox="0 0 25 24" fill="none" xmlns="http://www.w3.org/2000/svg">
<path fill-rule="evenodd" clip-rule="evenodd" d="M12.2779 2.00001C9.7838 1.99737 7.3703 2.86251 5.46989 4.44037C3.56947 6.01823 2.30638 8.20566 1.90696 10.6107C1.50755 13.0157 1.99792 15.481 3.29021 17.5649C4.58249 19.6488 6.5922 21.215 8.95918 21.9828C9.48865 22.0779 9.67713 21.7604 9.67713 21.4893C9.67713 21.2442 9.66655 20.4373 9.66231 19.5807C6.74285 20.2014 6.12762 18.3714 6.12762 18.3714C5.93493 17.7515 5.52183 17.2191 4.9628 16.8704C4.00976 16.2342 5.03692 16.2498 5.03692 16.2498C5.36944 16.2948 5.68707 16.4133 5.96562 16.5963C6.24418 16.7794 6.47632 17.0221 6.64437 17.3059C6.78656 17.5588 6.97866 17.7816 7.20956 17.9615C7.44045 18.1414 7.70556 18.2748 7.98955 18.354C8.27354 18.4331 8.57078 18.4565 8.86409 18.4228C9.15739 18.389 9.44093 18.2988 9.69831 18.1573C9.74491 17.637 9.98211 17.1508 10.3654 16.7866C8.0358 16.528 5.58333 15.6487 5.58333 11.7178C5.56885 10.6991 5.9564 9.71409 6.66555 8.96713C6.34409 8.08316 6.38007 7.11266 6.76615 6.25373C6.76615 6.25373 7.64717 5.97856 9.65278 7.30474C11.3727 6.84545 13.1873 6.84545 14.9072 7.30474C16.9085 5.97856 17.7843 6.25373 17.7843 6.25373C18.1718 7.11233 18.21 8.08266 17.8902 8.96713C18.599 9.71412 18.9859 10.6993 18.9703 11.7178C18.9703 15.656 16.5146 16.5218 14.1786 16.7753C14.4288 17.0237 14.6219 17.3215 14.7448 17.6487C14.8677 17.9758 14.9176 18.3249 14.8913 18.6725C14.8913 20.0442 14.8786 21.149 14.8786 21.4862C14.8786 21.7583 15.0692 22.0779 15.5997 21.9776C17.963 21.2069 19.9686 19.6399 21.2576 17.557C22.5467 15.4742 23.0352 13.0112 22.6357 10.6087C22.2362 8.20625 20.9748 6.02097 19.0772 4.44377C17.1795 2.86657 14.7694 2.00033 12.2779 2.00001Z" fill="#1F2937"/>
</svg>
