<svg width="49" height="48" viewBox="0 0 49 48" fill="none" xmlns="http://www.w3.org/2000/svg">
<rect x="0.388672" width="48" height="48" rx="24" fill="#F3E3A9"/>
<path d="M24.8624 14.4965C24.713 14.4324 24.5522 14.3994 24.3896 14.3994C24.2271 14.3994 24.0662 14.4324 23.9168 14.4965L15.5168 18.0965C15.3003 18.1887 15.1158 18.3425 14.986 18.5388C14.8563 18.7351 14.7871 18.9652 14.7871 19.2005C14.7871 19.4358 14.8563 19.6659 14.986 19.8622C15.1158 20.0584 15.3003 20.2123 15.5168 20.3045L18.6896 21.6617C18.8074 21.5285 18.9533 21.4231 19.1168 21.3533L23.9168 19.2965C24.0621 19.2317 24.2187 19.1965 24.3777 19.1929C24.5367 19.1892 24.6948 19.2172 24.8429 19.2752C24.991 19.3332 25.126 19.42 25.2403 19.5306C25.3545 19.6413 25.4456 19.7735 25.5082 19.9197C25.5709 20.0659 25.6039 20.223 25.6053 20.382C25.6067 20.541 25.5764 20.6988 25.5164 20.846C25.4563 20.9932 25.3675 21.1271 25.2552 21.2397C25.143 21.3523 25.0094 21.4415 24.8624 21.5021L21.59 22.9061L23.918 23.9033C24.0672 23.9672 24.2279 24.0001 24.3902 24.0001C24.5525 24.0001 24.7132 23.9672 24.8624 23.9033L33.2624 20.3033C33.4782 20.2107 33.662 20.0569 33.7912 19.8609C33.9204 19.6649 33.9893 19.4353 33.9893 19.2005C33.9893 18.9657 33.9204 18.7361 33.7912 18.5401C33.662 18.3441 33.4782 18.1902 33.2624 18.0977L24.8624 14.4977V14.4965ZM16.3616 23.2769L18.3896 24.1445V29.0669C17.9741 28.9724 17.5534 28.9027 17.1296 28.8581C16.8562 28.8293 16.6009 28.7076 16.4065 28.5132C16.2121 28.3188 16.0903 28.0635 16.0616 27.7901C15.9038 26.2792 16.0053 24.7524 16.3616 23.2757V23.2769ZM23.5496 31.8881C22.7384 31.0921 21.807 30.4288 20.7896 29.9225V25.1741L22.9712 26.1101C23.4194 26.3022 23.902 26.4013 24.3896 26.4013C24.8773 26.4013 25.3598 26.3022 25.808 26.1101L32.4176 23.2769C32.7761 24.7533 32.8775 26.2804 32.7176 27.7913C32.6889 28.0647 32.5671 28.32 32.3727 28.5144C32.1783 28.7088 31.923 28.8305 31.6496 28.8593C29.2286 29.1137 26.9655 30.1814 25.2296 31.8881C25.0053 32.108 24.7037 32.2311 24.3896 32.2311C24.0755 32.2311 23.7739 32.108 23.5496 31.8881ZM19.5896 33.6005C19.9079 33.6005 20.2131 33.4741 20.4381 33.249C20.6632 33.024 20.7896 32.7187 20.7896 32.4005V29.9225C20.0264 29.5433 19.2207 29.2553 18.3896 29.0669V32.4005C18.3896 32.7187 18.516 33.024 18.7411 33.249C18.9661 33.4741 19.2713 33.6005 19.5896 33.6005Z" fill="#CE9200"/>
</svg>
