<svg width="49" height="48" viewBox="0 0 49 48" fill="none" xmlns="http://www.w3.org/2000/svg">
<rect x="0.5" width="48" height="48" rx="24" fill="#F3E3A9"/>
<path d="M20.9004 15.5996C20.5821 15.5996 20.2769 15.726 20.0519 15.9511C19.8268 16.1761 19.7004 16.4813 19.7004 16.7996C19.7004 17.1179 19.8268 17.4231 20.0519 17.6481C20.2769 17.8732 20.5821 17.9996 20.9004 17.9996H28.1004C28.4187 17.9996 28.7239 17.8732 28.9489 17.6481C29.174 17.4231 29.3004 17.1179 29.3004 16.7996C29.3004 16.4813 29.174 16.1761 28.9489 15.9511C28.7239 15.726 28.4187 15.5996 28.1004 15.5996H20.9004ZM17.3004 20.3996C17.3004 20.0813 17.4268 19.7761 17.6519 19.5511C17.8769 19.326 18.1821 19.1996 18.5004 19.1996H30.5004C30.8187 19.1996 31.1239 19.326 31.3489 19.5511C31.574 19.7761 31.7004 20.0813 31.7004 20.3996C31.7004 20.7179 31.574 21.0231 31.3489 21.2481C31.1239 21.4732 30.8187 21.5996 30.5004 21.5996H18.5004C18.1821 21.5996 17.8769 21.4732 17.6519 21.2481C17.4268 21.0231 17.3004 20.7179 17.3004 20.3996ZM14.9004 25.1996C14.9004 24.5631 15.1532 23.9526 15.6033 23.5026C16.0534 23.0525 16.6639 22.7996 17.3004 22.7996H31.7004C32.3369 22.7996 32.9474 23.0525 33.3974 23.5026C33.8475 23.9526 34.1004 24.5631 34.1004 25.1996V29.9996C34.1004 30.6361 33.8475 31.2466 33.3974 31.6967C32.9474 32.1468 32.3369 32.3996 31.7004 32.3996H17.3004C16.6639 32.3996 16.0534 32.1468 15.6033 31.6967C15.1532 31.2466 14.9004 30.6361 14.9004 29.9996V25.1996Z" fill="#CE9200"/>
</svg>
