<svg width="210" height="158" viewBox="0 0 210 158" fill="none" xmlns="http://www.w3.org/2000/svg">
<g opacity="0.5">
<g opacity="0.51">
<path d="M209.603 100.081H183.847L165.023 81.2689H128.176L109.826 62.9187H55.6875V61.7026H110.337L128.675 80.0528H165.533L184.346 98.8651H209.104L234.362 73.5956L235.225 74.459L209.603 100.081Z" fill="#CE9200"/>
<path d="M55.7979 60.0244C54.5332 60.0244 53.5117 61.0459 53.5117 62.3106C53.5117 63.5753 54.5332 64.5968 55.7979 64.5968C57.0626 64.5968 58.0841 63.5753 58.0841 62.3106C58.0841 61.0459 57.0626 60.0244 55.7979 60.0244Z" fill="#CE9200"/>
</g>
<g opacity="0.27">
<path d="M206.368 79.1161H174.909L138.829 43.0481H64.7594L47.3942 60.4011L46.543 59.5499L64.2608 41.832H139.34L175.408 77.9001H205.87L223.563 60.2065H254.974V61.4226H224.062L206.368 79.1161Z" fill="#CE9200"/>
<path d="M45.4353 58.2729C44.5476 59.1606 44.5476 60.6077 45.4353 61.5076C46.323 62.3953 47.7701 62.3953 48.67 61.5076C49.5577 60.6199 49.5577 59.1728 48.67 58.2729C47.7823 57.373 46.3352 57.3852 45.4353 58.2729Z" fill="#CE9200"/>
</g>
<g opacity="0.71">
<path d="M213.237 86.4977H196.602V85.2817H212.739L231.636 66.3843L232.499 67.2477L213.237 86.4977Z" fill="#CE9200"/>
<path d="M196.712 83.6157C195.447 83.6157 194.426 84.6372 194.426 85.9019C194.426 87.1666 195.447 88.1881 196.712 88.1881C197.977 88.1881 198.998 87.1666 198.998 85.9019C198.998 84.6372 197.977 83.6157 196.712 83.6157Z" fill="#CE9200"/>
</g>
<g opacity="0.41">
<path d="M256.214 11.601L238.168 -6.44517H180.259L157.665 -29.0515H123.032L95.1481 -1.16752L94.2969 -2.01875L122.534 -30.2676H158.176L180.77 -7.66122H238.666L257.065 10.7376L256.214 11.601Z" fill="#CE9200"/>
<path d="M93.1892 -3.29564C92.3015 -2.40792 92.3015 -0.960819 93.1892 -0.0609429C94.0769 0.826773 95.524 0.826773 96.4239 -0.0609429C97.3116 -0.948659 97.3116 -2.39576 96.4239 -3.29564C95.5362 -4.18335 94.0891 -4.18335 93.1892 -3.29564Z" fill="#CE9200"/>
</g>
<g opacity="0.38">
<path d="M194.172 68.2938H172.162L130.84 26.9846H22.0039V25.7686H131.351L172.66 67.0778H193.661L209.13 51.6096H251.059L258.854 43.8026L259.717 44.666L251.558 52.8257H209.628L194.172 68.2938Z" fill="#CE9200"/>
<path d="M22.1221 28.6627C23.3847 28.6627 24.4083 27.6391 24.4083 26.3765C24.4083 25.1139 23.3847 24.0903 22.1221 24.0903C20.8595 24.0903 19.8359 25.1139 19.8359 26.3765C19.8359 27.6391 20.8595 28.6627 22.1221 28.6627Z" fill="#CE9200"/>
</g>
<g opacity="0.49">
<path d="M173.54 18.8127H159.312V17.5966H173.042L186.443 4.18359H236.07V5.39964H186.941L173.54 18.8127Z" fill="#CE9200"/>
<path d="M159.423 15.918C158.158 15.918 157.137 16.9394 157.137 18.2041C157.137 19.4688 158.158 20.4903 159.423 20.4903C160.688 20.4903 161.709 19.4688 161.709 18.2041C161.709 16.9394 160.688 15.918 159.423 15.918Z" fill="#CE9200"/>
</g>
<g opacity="0.22">
<path d="M171.674 5.07088L151.743 -14.8723H122.898V-16.0884H152.242L172.538 4.20749L171.674 5.07088Z" fill="#CE9200"/>
<path d="M173.647 2.94264C174.534 3.83036 174.534 5.27745 173.647 6.17733C172.759 7.06505 171.312 7.06505 170.412 6.17733C169.524 5.28961 169.524 3.84252 170.412 2.94264C171.3 2.05493 172.747 2.05493 173.647 2.94264Z" fill="#CE9200"/>
</g>
<g opacity="0.71">
<path d="M157.931 7.1263L144.177 -6.62721H118.762V-7.84326H144.688L158.794 6.26291L157.931 7.1263Z" fill="#CE9200"/>
<path d="M159.881 4.99831C160.769 5.88602 160.769 7.33313 159.881 8.233C158.993 9.12072 157.546 9.12072 156.646 8.233C155.759 7.34529 155.759 5.89818 156.646 4.99831C157.534 4.11059 158.981 4.11059 159.881 4.99831Z" fill="#CE9200"/>
</g>
<g opacity="0.56">
<path d="M40.3389 66.9194H23.375V68.1355H40.3389V66.9194Z" fill="#CE9200"/>
<path d="M40.2276 69.8136C41.4902 69.8136 42.5138 68.79 42.5138 67.5274C42.5138 66.2648 41.4902 65.2412 40.2276 65.2412C38.965 65.2412 37.9414 66.2648 37.9414 67.5274C37.9414 68.79 38.965 69.8136 40.2276 69.8136Z" fill="#CE9200"/>
<path d="M23.4932 69.8136C24.7558 69.8136 25.7794 68.79 25.7794 67.5274C25.7794 66.2648 24.7558 65.2412 23.4932 65.2412C22.2306 65.2412 21.207 66.2648 21.207 67.5274C21.207 68.79 22.2306 69.8136 23.4932 69.8136Z" fill="#CE9200"/>
</g>
<g opacity="0.69">
<path d="M147.767 69.862L129.891 51.9861H71.4961V50.77H130.389L148.618 68.9986L147.767 69.862Z" fill="#CE9200"/>
<path d="M149.729 67.7341C150.616 68.6219 150.616 70.069 149.729 70.9688C148.841 71.8566 147.394 71.8566 146.494 70.9688C145.606 70.0811 145.606 68.634 146.494 67.7341C147.382 66.8464 148.829 66.8464 149.729 67.7341Z" fill="#CE9200"/>
<path d="M71.6065 53.6641C72.8691 53.6641 73.8927 52.6406 73.8927 51.378C73.8927 50.1154 72.8691 49.0918 71.6065 49.0918C70.3439 49.0918 69.3203 50.1154 69.3203 51.378C69.3203 52.6406 70.3439 53.6641 71.6065 53.6641Z" fill="#CE9200"/>
</g>
<g opacity="0.99">
<path d="M51.3589 146.145H11.6914V144.929H50.8482L81.4318 114.345H116.491L136.422 94.4141H173.669V95.6301H136.92L116.989 115.561H81.9426L51.3589 146.145Z" fill="#CE9200"/>
<path d="M173.56 92.7358C174.824 92.7358 175.846 93.7573 175.846 95.022C175.846 96.2867 174.824 97.3082 173.56 97.3082C172.295 97.3082 171.273 96.2867 171.273 95.022C171.273 93.7573 172.295 92.7358 173.56 92.7358Z" fill="#CE9200"/>
<path d="M11.8096 143.25C10.5449 143.25 9.52344 144.272 9.52344 145.537C9.52344 146.801 10.5449 147.823 11.8096 147.823C13.0743 147.823 14.0958 146.801 14.0958 145.537C14.0958 144.272 13.0743 143.25 11.8096 143.25Z" fill="#CE9200"/>
</g>
<g opacity="0.69">
<path d="M10.109 98.7314L9.25781 97.868L32.6424 74.4834H103.927L117.681 88.2248H159.926V89.4408H117.17L103.429 75.6994H33.141L10.109 98.7314Z" fill="#CE9200"/>
<path d="M159.814 86.5464C161.078 86.5464 162.1 87.5679 162.1 88.8326C162.1 90.0973 161.078 91.1187 159.814 91.1187C158.549 91.1187 157.527 90.0973 157.527 88.8326C157.527 87.5679 158.549 86.5464 159.814 86.5464Z" fill="#CE9200"/>
<path d="M8.15016 96.6033C7.26245 97.491 7.26245 98.9381 8.15016 99.838C9.03788 100.738 10.485 100.726 11.3849 99.838C12.2726 98.9502 12.2726 97.5032 11.3849 96.6033C10.4971 95.7156 9.05004 95.7156 8.15016 96.6033Z" fill="#CE9200"/>
</g>
<g opacity="0.78">
<path d="M48.9495 125.18H15.4595L4.10156 113.823L4.96496 112.959L15.958 123.964H48.4509L73.1853 99.2178H113.193V100.434H73.6961L48.9495 125.18Z" fill="#CE9200"/>
<path d="M113.083 97.5396C114.348 97.5396 115.369 98.561 115.369 99.8257C115.369 101.09 114.348 102.112 113.083 102.112C111.818 102.112 110.797 101.09 110.797 99.8257C110.797 98.561 111.818 97.5396 113.083 97.5396Z" fill="#CE9200"/>
<path d="M6.2286 111.865C5.34089 110.977 3.89379 110.977 2.99391 111.865C2.1062 112.752 2.1062 114.199 2.99391 115.099C3.88163 115.987 5.32873 115.987 6.2286 115.099C7.11632 114.211 7.11632 112.764 6.2286 111.865Z" fill="#CE9200"/>
</g>
<g opacity="0.65">
<path d="M39.6701 109.031H23.375V107.815H39.1715L58.0689 88.918H99.451V90.134H58.5675L39.6701 109.031Z" fill="#CE9200"/>
<path d="M99.3252 91.8121C100.588 91.8121 101.611 90.7885 101.611 89.5259C101.611 88.2633 100.588 87.2397 99.3252 87.2397C98.0626 87.2397 97.0391 88.2633 97.0391 89.5259C97.0391 90.7885 98.0626 91.8121 99.3252 91.8121Z" fill="#CE9200"/>
<path d="M23.4932 110.71C24.7558 110.71 25.7794 109.686 25.7794 108.423C25.7794 107.161 24.7558 106.137 23.4932 106.137C22.2306 106.137 21.207 107.161 21.207 108.423C21.207 109.686 22.2306 110.71 23.4932 110.71Z" fill="#CE9200"/>
</g>
<g opacity="0.3">
<path d="M5.98405 67.7955L5.13281 66.9443L35.3881 36.689H115.258V37.905H35.8867L5.98405 67.7955Z" fill="#CE9200"/>
<path d="M115.138 35.0107C116.402 35.0107 117.424 36.0322 117.424 37.2969C117.424 38.5616 116.402 39.5831 115.138 39.5831C113.873 39.5831 112.852 38.5616 112.852 37.2969C112.852 36.0322 113.873 35.0107 115.138 35.0107Z" fill="#CE9200"/>
<path d="M4.02516 65.6673C3.13745 66.555 3.13745 68.0021 4.02516 68.9019C4.91288 69.7897 6.35998 69.7897 7.25985 68.9019C8.14757 68.0142 8.14757 66.5671 7.25985 65.6673C6.37214 64.7795 4.92504 64.7795 4.02516 65.6673Z" fill="#CE9200"/>
</g>
<g opacity="0.26">
<path d="M181.93 54.7347H168.712L131.087 17.1101H15.125V15.894H131.586L169.223 53.5186H181.432L196.207 38.7436H236.75L248.096 27.3979L248.959 28.2613L237.261 39.9597H196.705L181.93 54.7347Z" fill="#CE9200"/>
<path d="M15.2354 18.7882C16.498 18.7882 17.5216 17.7646 17.5216 16.502C17.5216 15.2394 16.498 14.2158 15.2354 14.2158C13.9728 14.2158 12.9492 15.2394 12.9492 16.502C12.9492 17.7646 13.9728 18.7882 15.2354 18.7882Z" fill="#CE9200"/>
</g>
<g opacity="0.88">
<path d="M180.737 43.2308H166.667L130.319 6.88304H8.94531V5.66699H130.83L167.166 42.0147H180.238L190.72 31.5324H233.671L243.983 21.2081L244.847 22.0715L234.17 32.7484H191.219L180.737 43.2308Z" fill="#CE9200"/>
<path d="M9.06352 3.98877C7.79883 3.98877 6.77734 5.01025 6.77734 6.27494C6.77734 7.53963 7.79883 8.56111 9.06352 8.56111C10.3282 8.56111 11.3497 7.53963 11.3497 6.27494C11.3497 5.01025 10.3282 3.98877 9.06352 3.98877Z" fill="#CE9200"/>
</g>
<g opacity="0.89">
<path d="M180.563 27.9328L179.699 27.0816L193.465 13.3159H236.902V14.532H193.963L180.563 27.9328Z" fill="#CE9200"/>
<path d="M178.592 25.8049C177.704 26.6927 177.704 28.1398 178.592 29.0396C179.479 29.9274 180.926 29.9274 181.826 29.0396C182.714 28.1519 182.714 26.7048 181.826 25.8049C180.939 24.9172 179.491 24.9172 178.592 25.8049Z" fill="#CE9200"/>
</g>
</g>
</svg>
