<svg width="1439" height="1118" viewBox="0 0 1439 1118" fill="none" xmlns="http://www.w3.org/2000/svg">
<g clip-path="url(#clip0_13254_2345)">
<rect width="1439" height="1118" fill="#F1F1F1"/>
<path d="M214.304 0.134629L263.579 0.134508L67.5763 270.218L17.0925 270.218L214.304 0.134629Z" fill="#D9D9D9"/>
<path d="M297.844 0.134842L390.581 0.137102L97.2531 409.732L1.06231 405.483L297.844 0.134842Z" fill="#D9D9D9"/>
<path d="M54.8436 510.135L147.581 510.137L-145.747 919.732L-241.938 915.483L54.8436 510.135Z" fill="#D9D9D9"/>
<path d="M54.8436 510.135L147.581 510.137L-145.747 919.732L-241.938 915.483L54.8436 510.135Z" fill="#D9D9D9"/>
<path d="M1086.78 219.713L1178.2 219.714L735.617 808.587L649.565 808.587L1086.78 219.713Z" fill="#D9D9D9"/>
<path d="M936.777 259.711L1013.08 259.711L862.129 467.034L778.966 467.034L936.777 259.711Z" fill="#D9D9D9"/>
<path d="M1396.77 119.716L1501.29 122.537L1277.55 429.86L1173.95 424.354L1396.77 119.716Z" fill="#D9D9D9"/>
<path d="M1403.55 504.875L1500.29 512.537L1108.83 1011.84L1017.05 1011.84L1403.55 504.875Z" fill="#D9D9D9"/>
<path d="M1116.7 796.712L1029.43 917.45L1711.89 917.45L1754.05 809.788L1116.7 796.712Z" fill="#D9D9D9"/>
<path d="M1683.17 316.698L1779.91 324.36L1388.44 823.659L1296.67 823.659L1683.17 316.698Z" fill="#D9D9D9"/>
<path d="M1093.33 302.848L1141.97 304.245L696.616 903.584L653.565 903.583L1093.33 302.848Z" fill="#E9E9E9"/>
<path d="M1773.33 -249.152L1821.97 -247.755L1376.62 351.584L1333.56 351.583L1773.33 -249.152Z" fill="#E9E9E9"/>
<path d="M1593.33 180.848L1641.97 182.245L1196.62 781.584L1153.56 781.583L1593.33 180.848Z" fill="#E9E9E9"/>
<path d="M1642.33 -457.152L1690.97 -455.755L1245.62 143.584L1202.56 143.583L1642.33 -457.152Z" fill="#E9E9E9"/>
<path d="M47.8436 777.135L140.581 777.137L-152.747 1186.73L-248.938 1182.48L47.8436 777.135Z" fill="#D9D9D9"/>
</g>
<defs>
<clipPath id="clip0_13254_2345">
<rect width="1439" height="1118" fill="white"/>
</clipPath>
</defs>
</svg>
