<svg width="25" height="24" viewBox="0 0 25 24" fill="none" xmlns="http://www.w3.org/2000/svg">
<path d="M2.77246 3.03068C2.75576 3.05114 2.9561 3.35284 3.21766 3.7108C3.48478 4.06364 3.82981 4.52898 3.98563 4.73864C4.14145 4.9483 4.40858 5.30625 4.57553 5.53125C4.88717 5.94034 6.55111 8.16989 7.23005 9.08523C7.43039 9.35114 7.75873 9.79091 7.9535 10.0568C8.15384 10.3227 8.44879 10.7165 8.60461 10.9261C8.76043 11.1358 9.16668 11.683 9.51171 12.1381C9.85674 12.5932 10.135 12.992 10.135 13.0227C10.135 13.0534 10.0293 13.1864 9.8957 13.3193C9.76214 13.4523 9.24459 13.9943 8.7493 14.5313C8.24845 15.0631 7.64186 15.7227 7.39143 15.9835C5.26559 18.2438 2.78915 20.9233 2.78915 20.954C2.78915 20.9795 3.13975 21 3.56826 21H4.34736L4.56996 20.775C4.69239 20.6523 4.87604 20.458 4.97621 20.3506C5.07082 20.2381 5.60506 19.6653 6.156 19.0824C6.70694 18.4943 7.23005 17.9318 7.32465 17.8347C7.41369 17.7324 7.94237 17.1699 8.49331 16.5818C9.04425 15.9938 9.67866 15.3136 9.90126 15.0733C10.6525 14.2602 10.864 14.0455 10.903 14.0455C10.9252 14.0455 11.0198 14.158 11.12 14.2909C11.2146 14.4239 11.465 14.7614 11.6765 15.0426C11.888 15.3239 12.2219 15.7739 12.4222 16.0398C12.6226 16.3057 12.9509 16.7455 13.1512 17.0114C13.3516 17.2773 14.0695 18.2438 14.7484 19.1591C15.4273 20.0744 16.0284 20.8619 16.084 20.9131C16.1731 20.9949 16.3678 21 18.9723 20.9898L21.7715 20.9744L21.2595 20.2841C20.7809 19.6347 20.4247 19.1591 19.7347 18.2386C19.5789 18.029 19.2783 17.625 19.0669 17.3438C18.8554 17.0625 18.2544 16.2494 17.7201 15.5438C16.7852 14.2909 16.507 13.9176 15.7835 12.946C15.5943 12.6903 15.3049 12.3017 15.138 12.0767C14.3032 10.9619 14.0862 10.6653 14.0862 10.6295C14.0862 10.6091 14.3032 10.3585 14.5703 10.0722C14.843 9.79091 15.3383 9.26421 15.6722 8.90114C16.0117 8.54318 16.6739 7.83239 17.1469 7.32102C17.62 6.81477 18.0874 6.31875 18.1765 6.21648C18.2711 6.1142 18.7942 5.55682 19.3451 4.96875C20.4804 3.76193 20.9145 3.29659 21.0592 3.12273L21.1649 3H20.3357L19.5121 3.00511L18.054 4.575C15.0601 7.79148 13.3905 9.56591 13.3349 9.58125C13.3071 9.59148 12.8897 9.075 12.4167 8.4358C11.9436 7.79659 11.3871 7.05511 11.1868 6.7892C10.7305 6.17045 10.2296 5.50568 9.62301 4.6875C9.36146 4.33466 8.97747 3.81818 8.766 3.53693L8.37645 3.02557L5.59393 3.01023C4.06354 3.00511 2.79472 3.01534 2.77246 3.03068Z" fill="#1F2937"/>
</svg>
