<svg width="49" height="48" viewBox="0 0 49 48" fill="none" xmlns="http://www.w3.org/2000/svg">
<rect x="0.5" width="48" height="48" rx="24" fill="#F3E3A9"/>
<path fill-rule="evenodd" clip-rule="evenodd" d="M26.2881 15.8044C25.8321 13.9324 23.1681 13.9324 22.7121 15.8044C22.644 16.0857 22.5105 16.3469 22.3224 16.5669C22.1342 16.7868 21.8968 16.9592 21.6295 17.0701C21.3622 17.181 21.0724 17.2272 20.7839 17.2049C20.4953 17.1826 20.2161 17.0926 19.9689 16.942C18.3225 15.9388 16.4385 17.8228 17.4417 19.4692C18.0897 20.5324 17.5149 21.9196 16.3053 22.2136C14.4321 22.6684 14.4321 25.3336 16.3053 25.7872C16.5867 25.8554 16.848 25.989 17.0679 26.1773C17.2878 26.3655 17.4602 26.6031 17.571 26.8706C17.6817 27.1381 17.7278 27.4279 17.7053 27.7166C17.6828 28.0052 17.5925 28.2845 17.4417 28.5316C16.4385 30.178 18.3225 32.062 19.9689 31.0588C20.216 30.908 20.4953 30.8177 20.7839 30.7952C21.0726 30.7727 21.3624 30.8187 21.6299 30.9295C21.8974 31.0403 22.1349 31.2126 22.3232 31.4326C22.5115 31.6525 22.6451 31.9138 22.7133 32.1952C23.1681 34.0684 25.8333 34.0684 26.2869 32.1952C26.3553 31.914 26.4891 31.6528 26.6774 31.4331C26.8657 31.2133 27.1032 31.041 27.3706 30.9303C27.638 30.8195 27.9278 30.7735 28.2163 30.7958C28.5049 30.8181 28.7841 30.9082 29.0313 31.0588C30.6777 32.062 32.5617 30.178 31.5585 28.5316C31.4079 28.2844 31.3178 28.0052 31.2955 27.7166C31.2732 27.4281 31.3192 27.1383 31.43 26.8709C31.5407 26.6035 31.713 26.366 31.9328 26.1777C32.1525 25.9894 32.4137 25.8556 32.6949 25.7872C34.5681 25.3324 34.5681 22.6672 32.6949 22.2136C32.4135 22.1454 32.1522 22.0118 31.9323 21.8235C31.7123 21.6352 31.54 21.3977 31.4292 21.1302C31.3184 20.8627 31.2724 20.5729 31.2949 20.2842C31.3174 19.9956 31.4077 19.7163 31.5585 19.4692C32.5617 17.8228 30.6777 15.9388 29.0313 16.942C28.7842 17.0928 28.5049 17.1831 28.2163 17.2056C27.9276 17.2281 27.6378 17.182 27.3703 17.0713C27.1028 16.9605 26.8652 16.7881 26.677 16.5682C26.4887 16.3483 26.3551 16.087 26.2869 15.8056L26.2881 15.8044ZM24.5001 27.6004C25.4549 27.6004 26.3705 27.2211 27.0457 26.546C27.7208 25.8708 28.1001 24.9552 28.1001 24.0004C28.1001 23.0456 27.7208 22.1299 27.0457 21.4548C26.3705 20.7797 25.4549 20.4004 24.5001 20.4004C23.5453 20.4004 22.6296 20.7797 21.9545 21.4548C21.2794 22.1299 20.9001 23.0456 20.9001 24.0004C20.9001 24.9552 21.2794 25.8708 21.9545 26.546C22.6296 27.2211 23.5453 27.6004 24.5001 27.6004Z" fill="#CE9200"/>
</svg>
